<?xml version="1.0" encoding="UTF-8"?>
<svg id="Layer_1" data-name="Layer 1" xmlns="http://www.w3.org/2000/svg" viewBox="0 0 543.6 543.6">
  <defs>
    <style>
      .cls-1 {
        fill: #231f20;
      }
    </style>
  </defs>
  <path class="cls-1" d="M271.8,0C121.69,0,0,121.69,0,271.8s121.69,271.8,271.8,271.8,271.8-121.69,271.8-271.8S421.91,0,271.8,0Zm-22.7,186.04c8.06-3.61,14.69-9.04,19.1-15.65l8.54-12.8,8.54,12.8c4.41,6.61,11.04,12.04,19.1,15.65l15.62,7-15.62,7c-8.06,3.61-14.69,9.04-19.1,15.65l-8.54,12.8-8.54-12.8c-4.41-6.61-11.04-12.04-19.1-15.65l-15.62-7,15.62-7Zm171.26,103.88c1.13,26.05-12.36,50.53-35.67,62.22-9.36,4.69-18.78,9.43-26.87,14.3-10.73,6.31-20.82,12.62-28.39,19.56-7.57-6.94-22.08-13.25-32.81-19.56-6.63-3.79-13.25-7.89-19.88-11.67-6.63,3.79-13.25,7.89-19.88,11.67-10.73,6.31-25.24,12.62-32.81,19.56-7.57-6.94-17.67-13.25-28.39-19.56-24.61-14.83-61.84-28.39-71.62-43.22,5.68-10.72,9.15-23.34,9.15-36.6v-92.75c0-13.25-3.47-25.55-9.15-36.28h85.5v151.12c0,14.83,5.68,23.98,14.51,30.6,8.83-6.63,14.51-15.78,14.51-30.6v-79.74c10.43,6.69,19.03,15.89,25,26.81l13.17,24.08,13.17-24.08c5.97-10.91,14.58-20.12,25-26.81v79.74c0,14.83,5.68,23.98,14.51,30.6,8.83-6.63,14.51-15.78,14.51-30.6V157.59h85.5c-5.68,10.73-9.15,23.03-9.15,36.28v92.75c0,1.1,.02,2.2,.07,3.3Z"/>
</svg>